<svg width="15" height="15" viewBox="0 0 15 15" fill="none" xmlns="http://www.w3.org/2000/svg">
<path d="M11.875 5C11.3542 5 10.9115 4.81771 10.5469 4.45312C10.1823 4.08854 10 3.64583 10 3.125C10 2.60417 10.1823 2.16146 10.5469 1.79688C10.9115 1.43229 11.3542 1.25 11.875 1.25C12.3958 1.25 12.8385 1.43229 13.2031 1.79688C13.5677 2.16146 13.75 2.60417 13.75 3.125C13.75 3.64583 13.5677 4.08854 13.2031 4.45312C12.8385 4.81771 12.3958 5 11.875 5ZM2.5 12.5C2.15625 12.5 1.86198 12.3776 1.61719 12.1328C1.3724 11.888 1.25 11.5938 1.25 11.25V3.75C1.25 3.40625 1.3724 3.11198 1.61719 2.86719C1.86198 2.6224 2.15625 2.5 2.5 2.5H8.8125C8.77083 2.70833 8.75 2.91667 8.75 3.125C8.75 3.33333 8.77083 3.54167 8.8125 3.75C8.88542 4.08333 9.00521 4.39323 9.17188 4.67969C9.33854 4.96615 9.54167 5.21875 9.78125 5.4375L7.5 6.875L2.5 3.75V5L7.5 8.125L10.7969 6.0625C10.974 6.125 11.151 6.17188 11.3281 6.20312C11.5052 6.23438 11.6875 6.25 11.875 6.25C12.2083 6.25 12.5365 6.19792 12.8594 6.09375C13.1823 5.98958 13.4792 5.83333 13.75 5.625V11.25C13.75 11.5938 13.6276 11.888 13.3828 12.1328C13.138 12.3776 12.8438 12.5 12.5 12.5H2.5Z" fill="white"/>
</svg>
