<svg width="28" height="30" viewBox="0 0 28 30" fill="none" xmlns="http://www.w3.org/2000/svg">
<g clip-path="url(#clip0_21_202)">
<path d="M6.96223 12.0102V17.1899L9.58515 13.9334H11.2774L8.91431 16.8211L11.501 20.6052H9.7302L7.86877 17.7515L6.95618 18.6706V20.5995H5.39089V12.0102H6.96223Z" fill="#515F7D"/>
<path d="M15.9068 15.295H14.2992V18.6989C14.2992 19.3287 14.6376 19.6067 15.1694 19.6067C15.3749 19.6067 15.5804 19.5669 15.7738 19.4989L15.9128 20.4066C15.5139 20.6108 15.0667 20.7129 14.6134 20.7073C13.2717 20.7073 12.7218 19.9697 12.7218 18.6309V15.3574L11.8696 15.1475V14.2171L12.8064 14.149L13.2113 12.6626H14.3052V14.1887H15.9128V15.295H15.9068Z" fill="#515F7D"/>
<path d="M21.0922 13.9334H22.6454V20.6108H21.2614L21.1889 19.9811C20.6872 20.4803 20.0285 20.73 19.2307 20.73C17.7863 20.73 16.9765 19.7598 16.9765 18.2111V13.9391H18.5418V18.2111C18.5418 19.0904 18.9346 19.5499 19.7324 19.5499C20.2642 19.5556 20.7719 19.323 21.0861 18.9202V13.9334H21.0922Z" fill="#515F7D"/>
<path d="M0 0V30H28V0H0ZM1.53507 1.441H26.4589V28.5533H1.53507V1.441Z" fill="#515F7D"/>
<path d="M4.20635 24.5594V27.118H3.60803V25.4047H3.07015V25.0246H3.29981C3.60803 25.0246 3.6866 24.9508 3.74099 24.5651L4.20635 24.5594Z" fill="#515F7D"/>
<path d="M5.42111 26.7039C5.68703 26.7039 5.8079 26.5734 5.8079 26.3181V26.0231C5.67494 26.1138 5.51781 26.1592 5.35463 26.1536C4.88323 26.1536 4.58105 25.9153 4.58105 25.3877C4.58105 24.8487 4.90741 24.5367 5.48759 24.5367C6.06778 24.5367 6.36391 24.8941 6.36391 25.3423V26.284C6.36391 26.8173 6.01338 27.152 5.45133 27.152C5.02223 27.152 4.74423 26.9591 4.61731 26.6017L4.98597 26.4032C5.07663 26.6244 5.20958 26.7039 5.42111 26.7039ZM5.81394 25.5295V25.3139C5.81394 25.087 5.7112 24.9905 5.48759 24.9905C5.26398 24.9905 5.15519 25.104 5.15519 25.365C5.15519 25.643 5.26398 25.7224 5.46946 25.7224C5.62055 25.7281 5.80186 25.6827 5.81394 25.5295Z" fill="#515F7D"/>
<path d="M8.4006 25.2402C8.4006 26.1082 7.45176 26.1592 7.30671 26.6812H8.40665V27.118H6.67818L6.67213 26.8854C6.70235 26.0685 7.83251 25.7678 7.83251 25.2685C7.83251 25.0983 7.73581 24.9962 7.51219 24.9962C7.31276 24.9962 7.15562 25.1324 7.09519 25.382L6.654 25.2402C6.76883 24.8487 7.07101 24.5424 7.56659 24.5424C8.15282 24.5424 8.4006 24.8714 8.4006 25.2402Z" fill="#515F7D"/>
<path d="M10.4192 25.2402C10.4192 26.1082 9.47032 26.1592 9.32527 26.6812H10.4252V27.118H8.69674L8.6907 26.8854C8.72091 26.0685 9.85107 25.7678 9.85107 25.2685C9.85107 25.0983 9.75437 24.9962 9.53076 24.9962C9.33132 24.9962 9.17418 25.1324 9.11375 25.382L8.67257 25.2402C8.78739 24.8487 9.08957 24.5424 9.58515 24.5424C10.1714 24.5424 10.4192 24.8714 10.4192 25.2402Z" fill="#515F7D"/>
</g>
<defs>
<clipPath id="clip0_21_202">
<rect width="28" height="30" fill="white"/>
</clipPath>
</defs>
</svg>
