<svg width="11" height="11" viewBox="0 0 11 11" fill="none" xmlns="http://www.w3.org/2000/svg">
<g clip-path="url(#clip0_5_95)">
<path d="M7.33333 3.66669C8.06268 3.66669 8.76215 3.95642 9.27788 4.47214C9.7936 4.98787 10.0833 5.68734 10.0833 6.41669V9.62502H8.25V6.41669C8.25 6.17357 8.15342 5.94041 7.98151 5.76851C7.80961 5.5966 7.57645 5.50002 7.33333 5.50002C7.09022 5.50002 6.85706 5.5966 6.68515 5.76851C6.51324 5.94041 6.41667 6.17357 6.41667 6.41669V9.62502H4.58333V6.41669C4.58333 5.68734 4.87306 4.98787 5.38879 4.47214C5.90451 3.95642 6.60399 3.66669 7.33333 3.66669Z" stroke="white" stroke-linecap="round" stroke-linejoin="round"/>
<path d="M2.75 4.12502H0.916666V9.62502H2.75V4.12502Z" stroke="white" stroke-linecap="round" stroke-linejoin="round"/>
<path d="M1.83333 2.75002C2.33959 2.75002 2.75 2.33961 2.75 1.83335C2.75 1.32709 2.33959 0.916687 1.83333 0.916687C1.32707 0.916687 0.916666 1.32709 0.916666 1.83335C0.916666 2.33961 1.32707 2.75002 1.83333 2.75002Z" stroke="white" stroke-linecap="round" stroke-linejoin="round"/>
</g>
<defs>
<clipPath id="clip0_5_95">
<rect width="11" height="11" fill="white"/>
</clipPath>
</defs>
</svg>
