<svg width="14" height="14" viewBox="0 0 14 14" fill="none" xmlns="http://www.w3.org/2000/svg">
<path d="M6.99999 7.00001C7.32083 7.00001 7.59548 6.88577 7.82395 6.6573C8.05243 6.42883 8.16666 6.15417 8.16666 5.83334C8.16666 5.51251 8.05243 5.23785 7.82395 5.00938C7.59548 4.78091 7.32083 4.66667 6.99999 4.66667C6.67916 4.66667 6.40451 4.78091 6.17604 5.00938C5.94756 5.23785 5.83333 5.51251 5.83333 5.83334C5.83333 6.15417 5.94756 6.42883 6.17604 6.6573C6.40451 6.88577 6.67916 7.00001 6.99999 7.00001ZM6.99999 12.8333C5.43472 11.5014 4.26562 10.2642 3.4927 9.12188C2.71979 7.97952 2.33333 6.92223 2.33333 5.95001C2.33333 4.49167 2.80243 3.32987 3.74062 2.46459C4.67881 1.59931 5.76527 1.16667 6.99999 1.16667C8.23472 1.16667 9.32118 1.59931 10.2594 2.46459C11.1976 3.32987 11.6667 4.49167 11.6667 5.95001C11.6667 6.92223 11.2802 7.97952 10.5073 9.12188C9.73437 10.2642 8.56527 11.5014 6.99999 12.8333Z" fill="white"/>
</svg>
