<svg width="14" height="14" viewBox="0 0 14 14" fill="none" xmlns="http://www.w3.org/2000/svg">
<path d="M8.77917 2.91666C9.34893 3.02782 9.87256 3.30648 10.283 3.71696C10.6935 4.12744 10.9722 4.65107 11.0833 5.22083M8.77917 0.583328C9.96291 0.714833 11.0668 1.24493 11.9095 2.08658C12.7522 2.92824 13.2837 4.03142 13.4167 5.21499M12.8333 9.87V11.62C12.834 11.7825 12.8007 11.9433 12.7356 12.0921C12.6705 12.241 12.5751 12.3746 12.4554 12.4844C12.3357 12.5942 12.1943 12.6779 12.0404 12.7299C11.8865 12.782 11.7235 12.8013 11.5617 12.7867C9.76665 12.5916 8.04242 11.9782 6.5275 10.9958C5.11807 10.1002 3.92311 8.90526 3.0275 7.49583C2.04166 5.97403 1.42814 4.24141 1.23667 2.43833C1.22209 2.27702 1.24126 2.11444 1.29296 1.96094C1.34466 1.80745 1.42775 1.6664 1.53695 1.54677C1.64615 1.42715 1.77905 1.33158 1.92721 1.26613C2.07537 1.20069 2.23553 1.16681 2.3975 1.16666H4.1475C4.4306 1.16388 4.70505 1.26412 4.9197 1.44872C5.13435 1.63332 5.27455 1.88967 5.31417 2.16999C5.38803 2.73003 5.52501 3.27992 5.7225 3.80916C5.80099 4.01795 5.81797 4.24486 5.77145 4.46301C5.72492 4.68115 5.61684 4.88139 5.46 5.04L4.71917 5.78083C5.54958 7.24123 6.75877 8.45042 8.21917 9.28083L8.96 8.53999C9.1186 8.38316 9.31884 8.27507 9.53699 8.22855C9.75513 8.18202 9.98205 8.19901 10.1908 8.27749C10.7201 8.47498 11.27 8.61197 11.83 8.68583C12.1134 8.7258 12.3722 8.86853 12.5571 9.08687C12.7421 9.3052 12.8404 9.58391 12.8333 9.87Z" fill="white"/>
</svg>
